<?xml version="1.0" standalone="no"?><svg xmlns="http://www.w3.org/2000/svg" viewBox="0 0 1440 320"><path fill="#f3f4f5" fill-opacity="1" d="M0,192L36.9,128L73.8,224L110.8,224L147.7,288L184.6,256L221.5,32L258.5,192L295.4,160L332.3,288L369.2,0L406.2,64L443.1,160L480,96L516.9,32L553.8,32L590.8,32L627.7,192L664.6,224L701.5,32L738.5,32L775.4,288L812.3,32L849.2,256L886.2,64L923.1,96L960,96L996.9,192L1033.8,64L1070.8,288L1107.7,96L1144.6,32L1181.5,320L1218.5,224L1255.4,192L1292.3,64L1329.2,160L1366.2,224L1403.1,160L1440,192L1440,320L1403.1,320L1366.2,320L1329.2,320L1292.3,320L1255.4,320L1218.5,320L1181.5,320L1144.6,320L1107.7,320L1070.8,320L1033.8,320L996.9,320L960,320L923.1,320L886.2,320L849.2,320L812.3,320L775.4,320L738.5,320L701.5,320L664.6,320L627.7,320L590.8,320L553.8,320L516.9,320L480,320L443.1,320L406.2,320L369.2,320L332.3,320L295.4,320L258.5,320L221.5,320L184.6,320L147.7,320L110.8,320L73.8,320L36.9,320L0,320Z"></path></svg>